<?xml version="1.0" standalone="no"?>
<!DOCTYPE svg PUBLIC "-//W3C//DTD SVG 20010904//EN"
 "http://www.w3.org/TR/2001/REC-SVG-20010904/DTD/svg10.dtd">
<svg version="1.0" xmlns="http://www.w3.org/2000/svg"
 width="512.000000pt" height="512.000000pt" viewBox="0 0 512.000000 512.000000"
 preserveAspectRatio="xMidYMid meet">

<g transform="translate(0.000000,512.000000) scale(0.100000,-0.100000)"
fill="#000000" stroke="none">
<path d="M565 5104 c-38 -8 -110 -35 -160 -59 -149 -72 -258 -180 -330 -330
-81 -167 -76 -9 -73 -2190 l3 -1940 27 -80 c83 -240 248 -402 488 -477 l75
-23 1970 0 1970 0 80 27 c240 83 402 248 477 488 l23 75 0 1965 0 1965 -23 75
c-75 240 -237 405 -477 488 l-80 27 -1950 2 c-1688 1 -1959 0 -2020 -13z
m3987 -356 c80 -37 152 -107 191 -187 l32 -66 0 -1935 0 -1935 -27 -57 c-37
-80 -107 -152 -187 -191 l-66 -32 -1935 0 -1935 0 -66 32 c-80 39 -150 111
-187 191 l-27 57 0 1935 0 1935 27 57 c48 103 144 186 247 214 36 10 465 12
1961 11 l1915 -2 57 -27z"/>
<path d="M1256 3758 c-61 -17 -122 -83 -135 -150 -8 -38 -11 -345 -9 -1063 l3
-1010 28 -47 c17 -29 44 -57 71 -73 l43 -25 497 0 c547 0 537 -1 593 63 82 93
64 227 -40 295 l-41 27 -378 3 -378 3 0 314 0 314 338 3 c335 3 337 3 375 27
76 47 114 145 87 226 -13 40 -60 98 -94 118 -15 8 -121 13 -361 17 l-340 5 -3
282 -2 282 372 3 373 3 47 27 c52 31 98 108 98 163 0 73 -39 139 -103 176
l-42 24 -480 2 c-310 1 -494 -2 -519 -9z"/>
<path d="M2905 3056 c-40 -17 -84 -63 -101 -103 -11 -26 -14 -165 -14 -735 0
-660 2 -705 19 -743 62 -137 247 -151 336 -26 l30 43 5 526 c5 515 5 528 26
567 39 73 97 105 187 105 101 0 161 -36 201 -120 20 -44 21 -61 26 -565 4
-381 8 -526 17 -541 33 -57 116 -104 183 -104 64 1 160 75 177 138 5 15 8 270
8 567 0 484 -2 547 -18 605 -68 253 -262 400 -528 400 -100 0 -189 -23 -259
-68 l-45 -28 -24 28 c-50 61 -154 86 -226 54z"/>
</g>
</svg>
