<?xml version="1.0" standalone="no"?>
<!DOCTYPE svg PUBLIC "-//W3C//DTD SVG 20010904//EN"
 "http://www.w3.org/TR/2001/REC-SVG-20010904/DTD/svg10.dtd">
<svg version="1.0" xmlns="http://www.w3.org/2000/svg"
 width="512.000000pt" height="512.000000pt" viewBox="0 0 512.000000 512.000000"
 preserveAspectRatio="xMidYMid meet">

<g transform="translate(0.000000,512.000000) scale(0.100000,-0.100000)"
fill="#000000" stroke="none">
<path d="M832 5105 c-215 -39 -385 -127 -537 -280 -129 -128 -214 -275 -264
-454 l-26 -96 0 -1705 c0 -1629 1 -1709 19 -1785 90 -385 376 -671 761 -761
76 -18 155 -19 1775 -19 1617 0 1699 1 1775 19 381 88 673 380 761 761 18 76
19 158 19 1775 0 1620 -1 1699 -19 1775 -94 404 -405 699 -811 770 -76 13
-302 15 -1734 14 -1315 -1 -1661 -3 -1719 -14z m3435 -251 c150 -31 275 -99
382 -207 98 -99 160 -207 199 -341 16 -57 17 -176 17 -1746 0 -1570 -1 -1689
-17 -1746 -81 -282 -301 -490 -580 -548 -69 -14 -256 -16 -1708 -16 -1781 0
-1704 -2 -1844 57 -179 75 -334 230 -409 408 -59 142 -57 63 -57 1845 0 1788
-3 1703 59 1850 72 172 225 326 399 400 144 61 53 58 1845 59 1451 1 1647 -1
1714 -15z"/>
<path d="M1606 3395 c-79 -28 -124 -99 -113 -179 7 -46 587 -1360 629 -1424
32 -47 80 -72 143 -72 54 0 93 18 127 58 28 34 616 1345 635 1416 42 160 -138
276 -275 176 -44 -32 -27 4 -301 -640 l-190 -445 -16 40 c-171 406 -402 948
-416 976 -23 47 -69 85 -117 99 -47 13 -58 12 -106 -5z"/>
<path d="M3410 3403 c-57 -21 -86 -42 -111 -82 l-29 -45 0 -715 0 -714 25 -43
c33 -57 115 -99 173 -89 51 8 93 35 128 81 l29 37 3 701 c2 386 0 716 -3 734
-15 83 -141 162 -215 135z"/>
</g>
</svg>
